<?xml version="1.0" standalone="no"?>
<!DOCTYPE svg PUBLIC "-//W3C//DTD SVG 20010904//EN"
 "http://www.w3.org/TR/2001/REC-SVG-20010904/DTD/svg10.dtd">
<svg version="1.0" xmlns="http://www.w3.org/2000/svg"
 width="718.000000pt" height="718.000000pt" viewBox="0 0 718.000000 718.000000"
 preserveAspectRatio="xMidYMid meet">
<metadata>
Created by potrace 1.11, written by Peter Selinger 2001-2013
</metadata>
<g transform="translate(0.000000,718.000000) scale(0.100000,-0.100000)"
fill="#000000" stroke="none">
<path d="M0 6631 c0 -444 3 -550 13 -554 7 -3 60 -5 116 -6 57 -1 106 -3 110
-5 3 -2 96 -7 206 -10 110 -4 245 -11 300 -17 55 -5 146 -9 202 -8 108 2 129
12 96 45 -16 15 -16 18 3 33 26 21 39 68 23 87 -6 8 -16 11 -22 7 -5 -3 -16 2
-23 12 -7 10 -20 15 -29 12 -8 -4 -15 -1 -15 5 0 6 -9 3 -20 -7 -20 -18 -21
-18 -32 23 -2 9 -19 0 -49 -27 l-45 -40 1 55 c1 32 8 61 17 71 31 35 44 79 46
148 2 84 -15 141 -41 137 -14 -2 -16 2 -11 22 4 16 2 26 -5 26 -6 0 -8 11 -4
30 3 17 1 30 -4 30 -6 0 -10 17 -9 39 1 38 -19 75 -34 66 -4 -3 -11 -37 -15
-76 -5 -48 -10 -68 -17 -61 -8 8 -7 24 0 53 6 24 9 46 6 51 -3 4 0 17 7 29 6
12 13 36 14 53 1 17 6 38 9 47 10 23 -9 33 -34 19 -25 -13 -27 2 -5 53 13 31
13 36 0 47 -20 17 -19 32 6 64 27 34 22 71 -8 70 -13 0 -23 5 -23 13 0 11 -68
13 -365 13 l-365 0 0 -549z m810 4 c0 -2 -11 -15 -25 -29 -19 -19 -25 -21 -25
-9 0 9 8 22 18 29 17 14 32 18 32 9z m17 -541 c-3 -3 -12 -4 -19 -1 -8 3 -5 6
6 6 11 1 17 -2 13 -5z"/>
<path d="M1492 7160 c0 -14 2 -19 5 -12 2 6 2 18 0 25 -3 6 -5 1 -5 -13z"/>
<path d="M1580 7148 c-14 -18 -23 -41 -22 -51 2 -10 -2 -26 -10 -35 -11 -13
-11 -14 0 -8 8 5 22 27 32 51 10 24 23 46 29 49 6 4 11 11 11 17 0 18 -17 9
-40 -23z"/>
<path d="M1883 7155 c-13 -29 -3 -33 20 -7 20 22 21 32 5 32 -7 0 -18 -11 -25
-25z"/>
<path d="M3464 7158 c-4 -13 -17 -36 -30 -51 -13 -16 -24 -35 -24 -43 0 -13 5
-12 30 3 17 9 30 24 30 33 0 8 7 24 15 34 8 11 15 26 15 33 0 22 -28 14 -36
-9z"/>
<path d="M3917 7173 c-3 -5 -7 -26 -8 -47 -6 -63 23 -56 37 9 1 6 5 18 9 28 5
13 2 17 -13 17 -12 0 -23 -3 -25 -7z"/>
<path d="M4014 7158 c-3 -13 -15 -35 -26 -50 -10 -15 -17 -30 -16 -35 1 -4 -6
-22 -15 -40 -9 -18 -17 -51 -17 -75 -1 -51 -14 -76 -57 -113 -18 -15 -33 -33
-33 -42 0 -8 -10 -29 -23 -46 -31 -45 -40 -61 -91 -164 -25 -51 -54 -101 -63
-111 -27 -26 -93 -121 -93 -132 0 -11 17 -6 85 25 46 21 104 75 148 139 10 14
26 26 36 26 13 0 21 10 25 34 4 19 11 36 17 38 13 4 39 70 46 117 4 22 12 35
24 38 11 3 16 10 12 17 -4 7 -1 6 8 -1 13 -11 20 -8 40 13 16 18 20 28 12 31
-20 7 -15 33 6 33 11 0 23 5 26 10 4 6 11 8 16 5 11 -8 46 49 59 97 6 20 14
38 18 40 7 3 42 95 42 110 0 4 -11 18 -24 32 -20 23 -31 26 -89 26 -59 0 -66
-2 -73 -22z m108 -160 c-7 -7 -12 -8 -12 -2 0 14 12 26 19 19 2 -3 -1 -11 -7
-17z"/>
<path d="M4912 7166 c1 -10 8 -17 13 -17 15 1 12 24 -3 29 -9 3 -13 -2 -10
-12z"/>
<path d="M1522 7130 c-15 -24 -15 -30 -2 -30 6 0 10 7 10 15 0 8 5 15 10 15 6
0 10 5 10 10 0 16 -14 11 -28 -10z"/>
<path d="M1224 7129 c-15 -20 -47 -130 -40 -137 12 -11 26 14 41 73 16 62 16
86 -1 64z"/>
<path d="M1852 7083 c-5 -16 -13 -37 -17 -48 -4 -11 4 -2 19 20 27 43 31 55
17 55 -5 0 -14 -12 -19 -27z"/>
<path d="M2507 7083 c-3 -15 -21 -44 -39 -64 -18 -20 -41 -54 -52 -75 -10 -22
-22 -47 -27 -56 -13 -26 -23 -98 -13 -98 32 1 84 95 84 153 0 26 3 37 9 29 11
-18 22 -2 45 66 12 35 15 57 9 63 -7 7 -12 1 -16 -18z"/>
<path d="M1996 7041 c-18 -34 -19 -41 -8 -41 10 0 36 60 29 67 -3 2 -13 -9
-21 -26z"/>
<path d="M2437 7053 c-4 -3 -7 -11 -7 -17 0 -6 5 -5 12 2 6 6 9 14 7 17 -3 3
-9 2 -12 -2z"/>
<path d="M3867 7053 c-5 -8 -10 -51 -8 -67 2 -16 30 27 31 46 0 18 -16 33 -23
21z"/>
<path d="M1483 7007 c-48 -71 -72 -128 -67 -156 5 -22 0 -33 -25 -54 -33 -27
-51 -80 -32 -91 6 -4 16 4 23 18 8 19 19 26 39 26 20 0 33 9 51 37 12 20 32
50 42 66 15 23 17 33 8 47 -9 14 -8 21 4 31 8 7 22 26 30 42 15 27 14 30 -5
48 -28 27 -43 24 -68 -14z"/>
<path d="M1923 7018 c-6 -7 -16 -30 -23 -52 -9 -27 -15 -35 -21 -25 -13 22
-35 -15 -64 -111 -15 -47 -33 -97 -41 -112 -8 -14 -14 -36 -14 -48 0 -19 2
-20 15 -10 8 7 15 19 15 27 0 8 5 11 12 7 8 -5 9 2 5 24 -6 31 6 45 16 20 7
-16 25 6 33 42 4 14 16 36 28 50 12 14 30 57 40 95 10 39 22 75 27 81 9 11 2
24 -11 24 -4 0 -12 -6 -17 -12z m-81 -212 c-9 -19 -19 -30 -20 -25 -4 10 24
59 33 59 3 0 -3 -15 -13 -34z"/>
<path d="M4911 7004 c0 -11 3 -14 6 -6 3 7 2 16 -1 19 -3 4 -6 -2 -5 -13z"/>
<path d="M4175 6939 c-4 -6 -3 -15 3 -21 6 -6 11 -4 15 6 7 18 -9 31 -18 15z"/>
<path d="M3850 6899 c0 -5 5 -7 10 -4 6 3 10 8 10 11 0 2 -4 4 -10 4 -5 0 -10
-5 -10 -11z"/>
<path d="M2300 6851 c-38 -32 -38 -36 1 -46 21 -5 27 -2 37 20 14 29 16 55 5
55 -5 0 -24 -14 -43 -29z"/>
<path d="M2497 6866 c-4 -10 -5 -21 -2 -24 9 -9 17 6 13 25 -3 17 -4 17 -11
-1z"/>
<path d="M4296 6845 c-3 -8 -1 -25 4 -37 9 -23 9 -23 9 -1 1 12 6 23 12 25 7
2 6 8 -4 16 -12 10 -16 10 -21 -3z"/>
<path d="M3802 6838 c-7 -7 -12 -16 -12 -21 0 -5 7 -1 16 8 9 9 14 18 12 20
-2 3 -10 -1 -16 -7z"/>
<path d="M4117 6833 c-4 -3 -7 -11 -7 -17 0 -6 5 -5 12 2 6 6 9 14 7 17 -3 3
-9 2 -12 -2z"/>
<path d="M4210 6821 c0 -5 -6 -11 -14 -13 -9 -2 -11 -10 -6 -22 6 -18 8 -16
23 12 8 18 11 32 6 32 -5 0 -9 -4 -9 -9z"/>
<path d="M1722 6778 c-14 -14 -16 -28 -3 -28 9 0 24 30 18 36 -2 2 -9 -2 -15
-8z"/>
<path d="M2867 6767 c-21 -26 -22 -38 -3 -31 12 5 30 44 23 50 -1 2 -10 -7
-20 -19z"/>
<path d="M4152 6769 c-16 -25 -15 -32 3 -25 8 3 15 1 15 -4 0 -6 5 -10 10 -10
14 0 12 22 -3 42 -12 15 -14 15 -25 -3z"/>
<path d="M1490 6745 c0 -8 4 -15 9 -15 5 0 11 7 15 15 3 9 0 15 -9 15 -8 0
-15 -7 -15 -15z"/>
<path d="M4210 6751 c0 -5 -3 -16 -6 -25 -9 -24 24 -32 41 -10 22 28 18 44
-10 44 -14 0 -25 -4 -25 -9z"/>
<path d="M1467 6706 c-5 -13 -14 -17 -32 -13 -14 2 -29 -1 -33 -7 -4 -6 -13
-11 -21 -11 -21 0 -33 -57 -23 -112 6 -39 11 -47 26 -45 11 2 22 -2 26 -9 18
-28 34 6 60 122 13 59 11 111 -3 75z"/>
<path d="M1690 6710 c0 -5 5 -10 10 -10 6 0 10 5 10 10 0 6 -4 10 -10 10 -5 0
-10 -4 -10 -10z"/>
<path d="M4102 6695 c-25 -29 -28 -45 -8 -45 8 0 16 -10 19 -22 3 -20 5 -18
12 11 5 20 16 36 27 39 21 5 18 29 -2 24 -7 -2 -16 2 -20 8 -4 6 -15 0 -28
-15z"/>
<path d="M3307 6688 c-8 -13 -27 -35 -42 -51 -40 -39 -26 -43 17 -4 37 33 65
77 50 77 -6 0 -16 -10 -25 -22z"/>
<path d="M2788 6682 c-24 -10 -92 -92 -76 -92 7 0 27 13 45 28 18 15 45 37 60
49 24 20 25 23 8 22 -11 0 -28 -3 -37 -7z"/>
<path d="M1531 6656 c-8 -10 -9 -16 -1 -21 5 -3 13 1 16 10 9 22 -1 29 -15 11z"/>
<path d="M3703 6655 c-3 -9 -3 -18 0 -21 9 -9 27 6 27 22 0 19 -19 18 -27 -1z"/>
<path d="M4176 6655 c-11 -8 -21 -22 -22 -30 -2 -12 4 -11 27 6 16 11 29 25
29 30 0 13 -12 11 -34 -6z"/>
<path d="M1663 6638 c-9 -11 -35 -79 -38 -98 -5 -32 -17 -60 -24 -56 -5 3 -13
0 -19 -7 -11 -14 -23 -97 -14 -97 9 1 64 79 79 112 10 23 43 141 43 154 0 9
-18 3 -27 -8z"/>
<path d="M2193 6643 c-7 -2 -13 -13 -13 -23 0 -9 -7 -23 -15 -30 -8 -7 -15
-20 -15 -30 0 -21 -24 -42 -72 -65 -21 -9 -38 -21 -38 -26 0 -5 -11 -9 -25 -9
-18 0 -25 -5 -25 -20 0 -11 -4 -20 -10 -20 -5 0 -10 -4 -10 -9 0 -10 36 -21
45 -13 3 3 24 7 48 10 23 2 49 10 58 18 8 8 27 14 42 14 14 0 29 5 32 10 3 6
15 10 26 10 10 0 19 5 19 11 0 6 -8 9 -17 6 -10 -2 -25 -7 -33 -9 -8 -3 -12
-3 -7 -1 4 3 7 13 7 24 0 10 5 19 11 19 6 0 16 6 23 13 17 16 26 76 12 74 -6
-1 -12 10 -14 26 -3 27 -7 30 -29 20z"/>
<path d="M4003 6582 c-13 -15 -23 -32 -23 -38 0 -6 -10 -16 -22 -23 -24 -13
-88 -87 -88 -101 0 -17 50 -3 95 25 25 16 45 33 45 37 0 4 6 8 13 8 18 1 46
67 34 79 -7 7 -5 12 6 17 25 9 20 19 -11 21 -19 1 -34 -6 -49 -25z"/>
<path d="M2087 6560 c-3 -13 0 -20 9 -20 8 0 14 9 14 20 0 11 -4 20 -9 20 -5
0 -11 -9 -14 -20z"/>
<path d="M1504 6552 c-17 -11 -31 -43 -38 -87 -4 -22 -10 -49 -13 -60 -6 -19
-7 -19 -12 3 -10 39 -26 29 -29 -18 -3 -43 -3 -44 15 -27 15 13 22 14 31 5 9
-9 15 -9 26 2 15 17 39 127 30 141 -3 5 0 9 5 9 6 0 11 9 11 20 0 21 -8 25
-26 12z"/>
<path d="M4307 6543 c-4 -3 -7 -11 -7 -17 0 -6 5 -4 10 4 7 11 10 11 10 2 0
-7 5 -10 10 -7 6 4 8 11 5 16 -7 11 -19 12 -28 2z"/>
<path d="M4190 6524 c0 -8 6 -22 14 -29 11 -11 13 -9 12 16 -1 29 -26 42 -26
13z"/>
<path d="M2016 6511 c-4 -5 -3 -17 0 -26 5 -13 8 -14 15 -3 5 7 9 19 9 26 0
14 -16 16 -24 3z"/>
<path d="M4150 6513 c0 -5 -14 -16 -30 -25 -26 -15 -29 -22 -24 -43 5 -21 0
-34 -29 -63 -19 -20 -39 -50 -44 -67 -10 -30 -10 -30 -22 -8 -10 19 -9 22 4
17 10 -4 15 0 15 15 0 29 -33 28 -57 -2 -23 -30 -53 -31 -53 -3 0 17 2 18 10
6 9 -13 10 -13 10 0 0 33 -14 40 -45 24 -47 -24 -72 -64 -39 -64 8 0 12 -5 8
-11 -3 -6 -15 -8 -27 -5 -43 11 -95 -65 -67 -99 8 -9 8 -15 0 -20 -6 -3 -8
-11 -5 -16 4 -5 -3 -9 -14 -9 -12 0 -21 7 -21 15 0 8 7 15 15 15 21 0 19 13
-5 28 -18 11 -26 9 -60 -20 -26 -22 -40 -41 -40 -57 0 -20 3 -22 12 -13 17 17
68 15 68 -2 0 -10 9 -12 38 -5 50 10 102 30 135 52 15 9 30 17 33 16 4 0 10 3
13 8 3 4 23 17 44 28 20 11 37 23 37 28 0 4 8 7 18 5 9 -2 16 3 15 10 -2 6 2
12 8 12 6 0 20 11 30 24 11 14 30 28 42 32 31 9 70 51 62 65 -4 6 -1 15 6 20
12 8 12 11 -1 18 -16 11 -15 13 15 29 11 6 14 12 8 12 -19 0 -50 34 -45 48 2
7 -1 12 -7 12 -6 0 -11 -3 -11 -7z"/>
<path d="M1827 6446 c-3 -8 -18 -20 -33 -28 -34 -16 -41 -35 -17 -40 40 -9 73
22 73 67 0 19 -16 19 -23 1z"/>
<path d="M1922 6442 c-16 -28 -12 -45 6 -33 8 5 12 19 10 32 l-3 24 -13 -23z"/>
<path d="M1960 6444 c0 -8 5 -12 10 -9 6 4 8 11 5 16 -9 14 -15 11 -15 -7z"/>
<path d="M3458 6393 c7 -3 16 -2 19 1 4 3 -2 6 -13 5 -11 0 -14 -3 -6 -6z"/>
<path d="M4320 6345 c-19 -21 -21 -25 -7 -25 9 0 17 -4 17 -10 0 -22 18 -8 23
18 8 39 -6 46 -33 17z"/>
<path d="M3366 6314 c-11 -7 -16 -17 -13 -21 4 -4 15 1 24 10 22 21 14 30 -11
11z"/>
<path d="M4278 6291 c-1 -5 -10 -11 -18 -13 -8 -2 -18 -12 -22 -23 -6 -19 -6
-18 -7 3 -1 26 -10 28 -37 7 -17 -13 -17 -14 -2 -15 11 0 15 -5 12 -15 -3 -8
-3 -18 0 -24 10 -16 47 1 57 25 5 13 12 24 16 23 27 -4 53 3 53 15 0 21 -45
36 -52 17z"/>
<path d="M4152 6220 c-7 -11 -21 -20 -32 -20 -26 0 -48 -39 -29 -51 10 -6 11
-9 2 -9 -20 0 -28 4 -25 13 1 4 -2 7 -8 7 -5 0 -10 -9 -10 -19 0 -23 -29 -36
-36 -16 -5 11 -17 8 -60 -16 -30 -16 -60 -29 -67 -29 -6 0 -57 -23 -112 -51
-55 -27 -135 -65 -177 -84 -56 -24 -108 -58 -185 -123 -99 -82 -112 -89 -150
-89 -45 0 -51 5 -30 26 26 28 -45 -3 -113 -49 -12 -8 -12 -12 -2 -18 9 -6 5
-12 -15 -23 -16 -7 -46 -26 -67 -41 -21 -16 -45 -28 -52 -28 -7 0 -17 -6 -21
-13 -11 -18 -112 -67 -139 -67 -12 0 -27 -7 -34 -15 -7 -8 -19 -15 -27 -15 -7
0 -16 -7 -19 -15 -4 -8 -12 -15 -20 -15 -17 0 -18 -12 -1 -29 10 -11 9 -12 -1
-6 -10 5 -13 2 -10 -11 3 -15 10 -18 38 -16 19 2 40 7 45 10 12 8 115 11 133
4 19 -7 14 -22 -7 -22 -11 0 -23 -5 -26 -10 -4 -6 -10 -8 -14 -6 -13 8 -51
-24 -51 -42 0 -11 -12 -21 -32 -27 -17 -6 -33 -16 -36 -22 -6 -19 19 -16 35 5
13 16 14 16 11 -3 -2 -13 -12 -21 -30 -23 -19 -2 -25 -8 -21 -21 3 -12 -7 -25
-31 -42 -20 -13 -39 -32 -42 -41 -3 -9 -13 -20 -23 -23 -19 -6 -91 -71 -91
-82 0 -3 9 -21 21 -39 19 -32 65 -60 127 -79 12 -3 29 -17 38 -30 18 -28 96
-59 129 -51 22 6 25 3 25 -18 0 -14 5 -28 11 -31 5 -4 14 -18 19 -31 5 -13 17
-24 25 -24 24 0 95 -43 95 -57 0 -8 14 -12 38 -12 20 1 59 -8 86 -20 32 -14
53 -18 59 -12 6 6 22 7 37 4 15 -3 31 0 34 6 11 17 24 13 31 -10 6 -19 8 -19
30 -5 12 8 26 12 29 8 4 -3 19 -8 34 -10 15 -2 36 -12 48 -23 11 -10 24 -16
27 -12 4 3 7 -1 7 -11 0 -9 -4 -14 -10 -11 -5 3 -10 -3 -10 -14 0 -11 -5 -23
-10 -26 -15 -9 -9 -83 7 -97 9 -7 14 -6 19 6 4 11 18 16 45 16 21 0 39 5 39
10 0 6 -6 10 -13 10 -14 0 -16 27 -3 48 4 7 2 12 -5 12 -10 0 -10 3 -2 11 7 7
19 8 30 4 10 -5 22 -9 28 -9 5 -1 13 -16 19 -33 5 -18 17 -35 27 -38 11 -4 19
-11 19 -16 0 -5 17 -9 39 -9 31 0 40 4 46 23 l7 22 7 -25 c7 -24 7 -24 20 -5
8 14 14 16 17 8 3 -7 17 -13 30 -13 13 0 24 -5 24 -11 0 -6 9 -9 20 -6 11 3
20 1 20 -4 0 -17 22 -9 27 11 5 20 70 65 88 62 6 -1 19 10 30 25 11 15 30 38
43 52 l23 26 -5 -42 c-6 -41 6 -59 17 -29 6 15 77 19 77 4 0 -18 32 -6 37 13
6 21 7 21 19 4 10 -14 29 -19 76 -20 35 -1 71 -5 80 -9 13 -6 15 -3 11 13 -4
17 -2 20 11 15 9 -3 16 -1 16 6 0 6 4 9 10 5 11 -7 50 25 50 42 0 6 9 14 20
18 19 6 53 70 67 123 3 14 14 33 23 42 10 10 21 36 25 58 4 27 13 43 29 50 25
11 36 63 36 170 0 34 4 52 12 52 9 0 9 3 0 12 -7 7 -12 25 -12 41 0 25 2 28
15 17 21 -18 32 -4 13 17 -11 14 -13 38 -10 105 2 49 8 85 13 82 20 -12 7 26
-14 43 -13 10 -32 43 -42 73 -18 53 -18 54 -35 32 l-18 -22 -6 26 c-4 14 -4
34 -1 45 4 10 2 19 -4 19 -6 0 -35 26 -66 57 -30 31 -55 51 -55 45 0 -8 -9
-10 -25 -6 -16 4 -30 0 -42 -11 -21 -22 -29 -5 -12 26 10 19 9 21 -6 16 -9 -4
-19 -7 -21 -7 -2 0 -4 -9 -4 -20 0 -11 -4 -20 -8 -20 -4 0 -21 -34 -37 -76
-25 -64 -35 -79 -61 -90 -39 -16 -89 -63 -98 -92 -9 -27 -26 -29 -19 -2 3 11
1 20 -5 20 -14 0 -29 -21 -37 -53 -6 -24 -12 -27 -46 -27 -21 0 -39 -4 -39 -9
0 -21 -205 -150 -218 -136 -3 2 -11 -3 -18 -13 -12 -16 -13 -15 -22 8 -11 29
-10 31 13 34 12 2 18 14 21 39 2 21 -1 37 -7 37 -6 0 -8 -4 -5 -9 3 -5 -29
-12 -72 -16 -42 -4 -80 -12 -84 -18 -5 -8 -13 -8 -30 1 -31 16 -61 18 -138 9
-36 -4 -78 -4 -94 1 l-29 8 23 22 c13 12 36 22 51 22 18 0 32 9 44 27 l18 27
8 -23 c10 -25 20 -24 97 11 23 10 46 17 50 14 11 -6 58 31 50 40 -4 3 -15 3
-25 -1 -10 -5 -29 -10 -43 -12 l-24 -4 26 20 c14 12 31 21 37 21 7 0 30 9 51
20 32 16 44 18 58 9 14 -9 34 -8 88 6 38 9 78 17 89 18 11 1 25 9 32 17 10 13
12 11 13 -12 0 -31 12 -34 72 -17 26 7 62 34 113 85 65 65 74 78 65 95 -13 23
-26 24 -62 5 -16 -8 -28 -11 -28 -6 0 4 6 10 13 13 42 16 113 185 88 210 -10
10 22 47 41 47 9 0 9 3 1 11 -14 14 -86 21 -93 9 -3 -5 -11 -6 -18 -1 -15 9 6
58 28 65 9 2 6 4 -6 5 -12 0 -24 -6 -28 -14 -3 -8 -14 -15 -24 -15 -10 0 -27
-9 -37 -20 -10 -11 -37 -29 -59 -39 -92 -42 -154 -73 -214 -106 -34 -19 -71
-35 -81 -35 -10 0 -30 -9 -44 -20 -14 -11 -32 -20 -40 -20 -9 0 -17 -5 -19
-11 -2 -6 -14 -9 -27 -7 -23 3 -23 3 8 35 35 37 87 67 102 58 5 -4 21 0 34 9
13 9 31 16 38 16 8 0 20 7 27 15 13 16 97 65 112 65 4 0 37 18 72 40 35 22 66
40 70 40 3 0 14 8 24 18 10 9 40 36 66 60 38 32 44 42 27 39 -12 -2 -30 -10
-40 -19 -12 -10 -24 -12 -39 -7 -12 5 -22 4 -22 0 0 -5 -7 -11 -15 -15 -30
-11 3 31 34 44 27 11 29 14 19 36 -14 29 -20 30 -36 4z m124 -367 c-10 -10
-19 5 -10 18 6 11 8 11 12 0 2 -7 1 -15 -2 -18z m-641 -83 c8 -13 -63 -56
-105 -64 -30 -5 -33 -5 -16 6 64 44 86 57 86 51 0 -4 5 -2 12 5 14 14 15 15
23 2z m485 -24 c0 -11 -19 -15 -25 -6 -3 5 1 10 9 10 9 0 16 -2 16 -4z m-910
-36 c0 -5 -7 -7 -15 -4 -8 4 -12 10 -9 15 6 11 24 2 24 -11z m970 -35 c0 -12
-110 -76 -120 -70 -12 7 49 55 69 55 6 0 11 5 11 10 0 6 9 10 20 10 11 0 20
-2 20 -5z m-810 -34 c0 -5 -8 -11 -17 -15 -10 -3 -25 -9 -33 -12 -8 -3 -4 4 9
15 25 22 41 27 41 12z m-291 -62 c-24 -15 -30 -10 -11 9 9 10 19 14 21 9 2 -5
-3 -13 -10 -18z m-149 -69 c0 -5 -7 -10 -16 -10 -8 0 -12 5 -9 10 3 6 10 10
16 10 5 0 9 -4 9 -10z m1235 -160 c3 -5 1 -10 -4 -10 -6 0 -11 5 -11 10 0 6 2
10 4 10 3 0 8 -4 11 -10z m-788 -25 c-7 -16 -47 -22 -47 -7 0 9 42 32 49 26 2
-2 1 -10 -2 -19z m749 -54 c-9 -10 -16 -25 -16 -34 0 -9 -4 -17 -10 -17 -5 0
-10 -10 -11 -22 0 -23 0 -23 -10 1 -8 19 -3 33 23 75 24 36 34 45 36 32 2 -9
-3 -25 -12 -35z m-136 -1 c0 -5 -4 -10 -10 -10 -5 0 -10 5 -10 10 0 6 5 10 10
10 6 0 10 -4 10 -10z m28 -41 c-3 -20 -5 -19 -9 9 -3 20 -2 29 4 23 5 -5 7
-19 5 -32z m-1274 -83 c-5 -14 -47 -36 -67 -36 -17 1 41 50 58 50 8 0 12 -6 9
-14z m1081 -166 c24 0 37 -6 45 -21 16 -28 3 -96 -23 -119 -29 -28 -118 -51
-214 -58 -95 -6 -109 7 -40 37 50 22 109 88 144 163 l25 53 14 -27 c12 -22 22
-28 49 -28z m-585 -38 c0 -18 11 -38 30 -57 17 -16 30 -35 30 -42 0 -21 -29
-15 -57 13 -14 14 -41 28 -60 31 -18 3 -32 8 -31 12 2 3 10 18 17 33 12 23 22
29 64 37 4 0 7 -12 7 -27z m966 -227 c-6 -19 -17 -35 -24 -35 -14 0 -8 34 10
58 19 23 25 12 14 -23z"/>
<path d="M3604 6185 c-10 -8 -14 -14 -9 -15 15 0 40 18 34 24 -3 3 -14 -1 -25
-9z"/>
<path d="M3233 6146 c-11 -11 -28 -27 -37 -34 -9 -7 -16 -17 -16 -21 0 -11 40
-2 58 12 19 15 14 -2 -8 -26 l-21 -22 20 -9 c21 -9 36 0 126 78 53 45 40 55
-21 17 -62 -40 -77 -40 -70 -1 5 35 -1 36 -31 6z"/>
<path d="M4256 6095 c-16 -12 -17 -15 -4 -15 8 0 21 7 28 15 16 19 1 19 -24 0z"/>
<path d="M2537 6007 c-12 -13 -30 -26 -39 -30 -22 -8 -24 -27 -2 -27 34 0 83
39 84 68 0 19 -19 14 -43 -11z"/>
<path d="M3020 5960 c0 -5 4 -10 9 -10 6 0 13 5 16 10 3 6 -1 10 -9 10 -9 0
-16 -4 -16 -10z"/>
<path d="M4321 5954 c0 -11 3 -14 6 -6 3 7 2 16 -1 19 -3 4 -6 -2 -5 -13z"/>
<path d="M2302 5939 c-13 -5 -20 -13 -17 -19 8 -12 35 -13 35 -1 0 5 9 7 20 4
14 -4 20 0 20 11 0 18 -22 20 -58 5z"/>
<path d="M6480 5940 c0 -5 5 -10 11 -10 5 0 7 5 4 10 -3 6 -8 10 -11 10 -2 0
-4 -4 -4 -10z"/>
<path d="M0 5830 c0 -79 4 -112 13 -115 33 -13 159 -37 214 -42 45 -4 81 0
130 15 37 11 115 32 173 46 195 50 225 58 275 76 28 10 68 23 90 29 44 12 72
27 65 35 -10 9 -819 66 -944 66 -14 0 -16 -14 -16 -110z"/>
<path d="M6492 5908 c-13 -17 -18 -60 -9 -74 4 -7 -1 -14 -11 -16 -12 -4 -18
0 -18 11 -1 48 -5 71 -14 71 -6 0 -8 -11 -4 -26 5 -18 3 -25 -7 -24 -34 5 -59
-12 -59 -41 0 -37 -14 -44 -28 -14 -12 25 -38 28 -52 5 -7 -11 -11 -11 -23 -1
-13 10 -17 9 -25 -5 -13 -22 -29 -11 -37 27 -4 17 -14 33 -23 35 -10 3 -25 10
-35 15 -27 14 -38 2 -35 -39 3 -31 0 -37 -17 -37 -13 0 -19 -6 -17 -17 2 -16
-23 -32 -38 -23 -11 7 -23 -12 -24 -38 -1 -23 -33 -32 -53 -15 -10 8 -21 3
-43 -21 -17 -17 -37 -31 -45 -31 -9 0 -18 -6 -21 -14 -3 -8 -13 -12 -22 -9
-31 8 -72 -14 -72 -38 0 -12 -3 -19 -7 -15 -4 4 -8 15 -8 24 0 9 -7 17 -15 17
-8 0 -14 -8 -14 -17 1 -10 -3 -18 -10 -18 -6 0 -12 11 -12 25 -1 14 2 25 7 25
5 0 9 4 9 10 0 5 -13 7 -30 4 -19 -4 -30 -2 -30 5 0 17 -21 13 -36 -6 -12 -17
-14 -17 -33 4 -12 12 -21 30 -21 40 0 35 -15 45 -35 23 -11 -12 -25 -18 -35
-15 -10 3 -20 -1 -23 -8 -4 -10 -15 -13 -31 -10 -23 5 -26 2 -24 -18 3 -20 -1
-24 -22 -21 -66 8 -75 7 -75 -8 0 -8 10 -16 23 -18 46 -7 20 -18 -35 -15 -62
3 -73 -4 -73 -50 0 -16 -4 -36 -10 -46 -11 -21 -11 -57 -3 -211 6 -121 6 -208
3 -512 -2 -195 7 -338 21 -338 4 0 10 12 12 28 4 25 4 25 6 -5 1 -26 4 -31 19
-26 9 3 24 15 33 26 17 20 57 18 44 -3 -3 -5 -2 -10 4 -10 5 0 13 5 16 11 5 7
13 5 24 -5 10 -9 20 -14 23 -11 3 3 23 -3 44 -14 37 -19 77 -22 101 -8 6 4 24
2 39 -3 25 -10 101 -14 147 -9 9 1 29 22 43 47 24 41 28 44 58 38 77 -16 97
-18 110 -7 15 13 100 6 145 -11 19 -7 22 -5 17 7 -4 12 1 15 25 13 20 -2 34 3
40 15 6 9 18 17 28 17 10 0 26 12 36 26 9 14 22 23 30 20 7 -2 21 2 32 9 15
13 16 16 3 24 -12 9 -12 11 3 17 9 3 28 7 42 8 16 0 25 7 25 17 0 10 11 20 25
23 14 4 25 14 25 24 1 30 26 52 59 52 l32 0 -5 120 c-2 66 0 120 4 120 5 0 10
19 12 42 3 37 6 42 38 53 28 9 38 19 49 53 14 44 9 78 -10 67 -5 -4 -19 1 -31
12 -20 18 -20 18 23 24 24 4 49 2 55 -2 6 -5 19 -7 28 -3 10 4 16 1 16 -7 0
-8 6 -5 15 7 8 10 15 14 15 7 0 -7 12 -11 27 -10 26 2 27 5 24 47 -1 25 -7 48
-13 51 -5 3 -11 30 -13 59 -2 29 -8 56 -13 59 -16 11 -41 89 -48 152 -7 67
-17 89 -40 89 -19 0 -18 -34 2 -71 8 -17 14 -42 12 -57 -2 -22 -8 -14 -32 45
-17 43 -36 75 -47 78 -9 3 -20 12 -23 20 -3 8 -13 15 -23 15 -14 0 -15 2 -4 9
9 6 11 18 6 39 -6 29 -17 34 -42 19 -9 -6 -13 -2 -13 12 0 11 5 23 10 26 12 8
13 95 1 95 -5 0 -13 -6 -19 -12z m-2 -128 c0 -5 -5 -10 -11 -10 -5 0 -7 5 -4
10 3 6 8 10 11 10 2 0 4 -4 4 -10z m-38 -42 c-7 -7 -12 -8 -12 -2 0 14 12 26
19 19 2 -3 -1 -11 -7 -17z m263 -237 c3 -5 1 -12 -4 -15 -5 -3 -11 1 -15 9 -6
16 9 21 19 6z m11 -60 c0 -11 -4 -17 -8 -15 -4 3 -8 12 -8 20 0 8 4 14 8 14 4
0 8 -9 8 -19z m54 -135 c0 -3 -4 -8 -10 -11 -5 -3 -10 -1 -10 4 0 6 5 11 10
11 6 0 10 -2 10 -4z m0 -47 c0 -5 -4 -9 -10 -9 -5 0 -10 7 -10 16 0 8 5 12 10
9 6 -3 10 -10 10 -16z m-668 -379 c7 -11 16 -20 21 -20 4 0 5 5 2 10 -11 18
21 11 68 -15 l47 -24 6 24 c6 25 28 33 39 15 7 -11 -30 -103 -58 -143 -11 -16
-40 -38 -66 -49 -93 -40 -242 -51 -273 -20 -7 7 1 16 29 30 49 25 124 116 143
171 15 46 24 50 42 21z"/>
<path d="M6370 5890 c0 -5 5 -10 10 -10 6 0 10 5 10 10 0 6 -4 10 -10 10 -5 0
-10 -4 -10 -10z"/>
<path d="M3400 5873 c-8 -2 -23 -15 -34 -30 -18 -24 -18 -25 0 -14 50 29 68
52 34 44z"/>
<path d="M1985 5836 c-33 -17 -62 -34 -65 -37 -3 -3 -20 -14 -37 -24 -18 -11
-33 -22 -33 -26 0 -4 -9 -9 -20 -12 -11 -3 -20 -1 -20 4 0 19 -31 20 -69 2
-22 -10 -41 -23 -41 -29 0 -6 -11 -20 -23 -31 -20 -16 -25 -34 -30 -93 -3 -42
-2 -81 4 -91 10 -20 -13 -69 -33 -69 -5 0 -7 -4 -4 -9 3 -4 -1 -28 -9 -52 -14
-42 -14 -42 -10 -8 3 19 2 38 -1 42 -15 15 -34 -18 -34 -59 0 -23 -4 -45 -9
-48 -5 -3 -11 -15 -14 -26 -3 -11 -2 -18 2 -16 4 3 14 -4 21 -15 16 -21 30
-25 30 -8 0 9 36 92 61 141 5 10 9 29 9 43 0 14 4 25 10 25 5 0 8 14 6 30 -2
21 1 30 11 30 8 0 11 -4 8 -10 -11 -17 -8 -124 4 -128 6 -2 11 -12 11 -23 0
-25 17 -24 25 1 13 41 65 10 65 -39 0 -19 4 -30 10 -26 12 7 12 5 15 -160 1
-71 5 -182 9 -245 6 -82 5 -111 -3 -100 -6 8 -11 49 -11 90 0 41 -5 82 -10 90
-7 10 -10 -19 -10 -90 0 -82 4 -117 21 -160 11 -30 25 -68 30 -85 6 -16 14
-37 19 -46 5 -9 6 -26 3 -37 -2 -11 1 -23 7 -27 10 -6 11 5 6 46 -7 57 -8 399
-1 459 2 19 7 64 10 100 3 36 14 90 23 120 21 69 21 288 1 301 -10 6 -9 9 4
15 23 8 39 40 43 81 2 26 -1 33 -16 33 -10 0 -21 6 -24 13 -4 9 -8 9 -11 1 -3
-7 -15 -10 -25 -7 -23 6 -27 23 -5 23 8 0 15 5 15 10 0 6 7 10 15 10 9 0 18 7
21 15 4 8 18 15 34 15 33 0 138 37 162 58 10 8 24 12 31 9 13 -5 67 40 67 54
0 3 -42 5 -92 6 -85 0 -98 -2 -153 -31z m-175 -126 c0 -5 -4 -10 -10 -10 -5 0
-10 5 -10 10 0 6 5 10 10 10 6 0 10 -4 10 -10z m-50 -37 c0 -5 -12 -17 -27
-27 -25 -18 -25 -11 0 22 10 13 27 16 27 5z"/>
<path d="M2800 5750 c-12 -8 -10 -10 8 -10 13 0 20 4 17 10 -7 12 -6 12 -25 0z"/>
<path d="M5990 5752 c0 -7 -7 -12 -16 -12 -17 0 -15 -21 3 -27 10 -4 26 37 18
46 -3 2 -5 -1 -5 -7z"/>
<path d="M4620 5705 c-10 -12 -10 -15 4 -15 9 0 16 7 16 15 0 8 -2 15 -4 15
-2 0 -9 -7 -16 -15z"/>
<path d="M1214 5466 c-8 -21 -1 -49 13 -53 14 -5 37 43 27 58 -8 14 -34 11
-40 -5z"/>
<path d="M1560 5460 c0 -5 5 -10 10 -10 6 0 10 5 10 10 0 6 -4 10 -10 10 -5 0
-10 -4 -10 -10z"/>
<path d="M1418 5403 c5 -21 7 -23 10 -9 2 10 0 22 -6 28 -6 6 -7 0 -4 -19z"/>
<path d="M6776 5212 c-3 -6 -15 -8 -26 -5 -16 4 -21 -1 -26 -26 -4 -17 -11
-28 -16 -25 -6 4 -8 -6 -7 -23 2 -16 -4 -42 -14 -56 -9 -14 -17 -34 -17 -44 0
-10 -6 -30 -14 -44 -40 -77 -55 -289 -21 -289 7 0 16 8 20 18 10 24 56 157 55
160 -1 8 13 60 22 79 6 12 8 29 5 37 -7 19 2 48 13 41 4 -2 16 5 26 16 12 13
14 19 5 17 -7 -2 -16 3 -18 10 -3 6 3 12 11 12 21 0 35 36 31 79 -2 35 -19 59
-29 43z"/>
<path d="M6684 5185 c-2 -21 1 -24 12 -14 17 14 18 39 2 39 -7 0 -14 -11 -14
-25z"/>
<path d="M7172 5130 c0 -14 2 -19 5 -12 2 6 2 18 0 25 -3 6 -5 1 -5 -13z"/>
<path d="M7072 5070 c-31 -41 -29 -64 4 -57 18 3 22 1 15 -6 -6 -6 -11 -21
-11 -33 0 -12 -7 -25 -16 -28 -15 -6 -15 -8 2 -27 11 -12 29 -25 42 -30 12 -5
22 -14 22 -20 0 -6 -19 3 -42 20 -23 17 -50 31 -60 31 -10 0 -21 7 -24 15 -9
22 -24 18 -24 -6 0 -12 -4 -17 -11 -14 -6 4 -8 13 -5 21 3 8 -1 14 -9 14 -8 0
-15 -8 -15 -17 0 -9 -7 -24 -15 -33 -9 -10 -18 -27 -20 -40 -6 -33 -11 -34
-33 -12 l-20 20 -27 -40 c-22 -33 -26 -49 -22 -82 5 -36 4 -39 -8 -22 -22 29
-32 12 -38 -68 -5 -71 -7 -76 -48 -117 -43 -43 -43 -43 -49 -19 -5 18 -12 24
-26 22 -26 -5 -24 -1 -30 -78 -3 -38 -10 -86 -15 -106 -5 -21 -7 -49 -3 -63 3
-14 2 -25 -4 -25 -5 0 -13 -17 -16 -37 -12 -66 -75 -289 -97 -339 -77 -180
-152 -339 -175 -369 -12 -16 -30 -45 -40 -64 -11 -18 -24 -41 -29 -50 -6 -9
-30 -50 -54 -91 -79 -135 -103 -173 -186 -300 -45 -69 -87 -134 -93 -145 -5
-10 -36 -51 -66 -90 -74 -92 -196 -253 -218 -286 -9 -14 -23 -32 -30 -40 -7
-8 -29 -36 -47 -64 -19 -27 -50 -63 -70 -80 -32 -28 -34 -29 -29 -8 3 13 2 23
-3 23 -5 0 -4 11 2 24 12 25 10 28 -33 76 -9 10 -21 27 -27 38 -9 17 -16 19
-46 12 -20 -5 -54 -20 -76 -35 -37 -27 -43 -28 -186 -29 -128 -2 -155 -5 -197
-24 -27 -12 -56 -22 -65 -22 -9 0 -28 -8 -41 -17 -51 -37 -147 -63 -159 -45
-4 6 -25 14 -46 18 -22 3 -56 16 -75 27 -34 21 -42 22 -348 19 l-314 -2 -94
30 c-52 16 -116 30 -142 30 -74 0 -123 -11 -129 -29 -3 -9 -13 -24 -21 -34
-12 -13 -13 -20 -4 -29 7 -7 12 -20 12 -29 0 -24 27 -31 117 -28 87 3 136 -5
153 -26 6 -8 24 -17 40 -20 16 -3 30 -12 33 -18 3 -7 17 -12 33 -12 35 2 64
-22 64 -55 1 -26 23 -57 55 -77 11 -6 19 -16 18 -21 -1 -5 10 -23 25 -38 39
-42 38 -65 -3 -91 -19 -13 -32 -28 -30 -35 14 -35 155 -98 220 -98 17 0 35 -3
39 -7 3 -4 23 -7 44 -8 21 -1 42 -4 48 -7 5 -4 32 -9 59 -13 27 -3 53 -9 59
-14 17 -14 75 -18 80 -7 3 7 10 4 16 -7 6 -9 15 -15 21 -12 5 4 13 -5 19 -19
5 -14 16 -26 25 -26 9 0 15 -9 15 -22 0 -32 13 -49 36 -49 95 0 98 2 97 49 -1
6 5 12 13 12 18 0 17 -30 -1 -54 -8 -10 -12 -23 -8 -29 3 -6 1 -7 -5 -3 -8 5
-12 -5 -12 -33 0 -22 -5 -42 -12 -44 -8 -3 -6 -6 5 -6 9 -1 17 4 17 11 0 6 2
9 5 6 9 -8 -6 -38 -16 -32 -5 3 -12 -2 -15 -11 -6 -14 -8 -14 -20 2 -13 17
-13 17 -14 1 0 -10 -4 -18 -9 -18 -5 0 -12 8 -14 18 -4 13 -5 11 -6 -5 -1 -26
-16 -31 -25 -8 -3 8 -12 15 -20 15 -13 0 -14 -5 -6 -27 l10 -28 -18 23 c-10
13 -21 20 -25 16 -4 -4 -3 -12 3 -18 6 -8 3 -12 -10 -13 -25 -2 -100 -62 -100
-80 0 -18 25 -27 48 -17 9 4 22 6 28 6 10 -2 45 15 139 67 53 30 105 80 98 96
-5 14 30 38 41 28 3 -3 6 1 6 10 0 10 -5 14 -15 11 -8 -4 -15 -1 -15 5 0 6 9
11 20 11 11 0 20 -5 20 -11 0 -5 4 -7 10 -4 11 7 9 33 -3 53 -12 18 3 15 26
-6 19 -17 19 -16 12 15 -4 21 -3 33 4 33 6 0 11 -8 12 -17 0 -14 2 -15 6 -3 6
17 64 70 76 70 4 0 7 9 7 20 0 11 6 20 14 20 8 0 17 6 20 13 3 6 15 26 26 42
11 17 23 37 26 45 8 17 24 36 93 108 28 29 51 56 51 61 0 5 7 11 15 15 8 3 15
10 15 16 0 15 57 88 93 118 15 13 27 30 27 38 0 8 4 14 8 14 12 0 47 31 58 52
6 12 14 14 24 8 12 -7 11 -24 -9 -112 -25 -112 -47 -193 -90 -333 -50 -159
-74 -248 -92 -335 -10 -47 -27 -128 -38 -180 -12 -52 -25 -151 -31 -220 -10
-127 -42 -307 -85 -480 -13 -52 -31 -169 -40 -260 -10 -91 -23 -204 -29 -252
l-12 -88 1088 0 1088 0 0 2543 0 2544 -35 1 c-20 1 -40 4 -44 6 -4 3 -18 -8
-29 -24z m-142 -273 c0 -5 -4 -5 -10 -2 -5 3 -10 14 -10 23 0 15 2 15 10 2 5
-8 10 -19 10 -23z m30 -43 c0 -20 -7 -17 -20 6 -9 16 -8 18 5 14 8 -4 15 -12
15 -20z m-1880 -2855 c0 -6 -4 -7 -10 -4 -5 3 -10 11 -10 16 0 6 5 7 10 4 6
-3 10 -11 10 -16z m-260 -223 c0 -3 -4 -8 -10 -11 -5 -3 -10 -1 -10 4 0 6 5
11 10 11 6 0 10 -2 10 -4z m0 -46 c0 -5 -2 -10 -4 -10 -3 0 -8 5 -11 10 -3 6
-1 10 4 10 6 0 11 -4 11 -10z m-23 -32 c-3 -8 -6 -5 -6 6 -1 11 2 17 5 13 3
-3 4 -12 1 -19z m-27 -7 c0 -6 -4 -13 -10 -16 -5 -3 -10 1 -10 9 0 9 5 16 10
16 6 0 10 -4 10 -9z"/>
<path d="M1310 5040 c0 -5 5 -10 10 -10 6 0 10 5 10 10 0 6 -4 10 -10 10 -5 0
-10 -4 -10 -10z"/>
<path d="M6864 4906 c-6 -17 2 -36 17 -36 12 0 12 37 -1 45 -6 3 -13 -1 -16
-9z"/>
<path d="M1190 4878 c0 -10 7 -18 15 -18 8 0 15 8 15 18 0 10 -7 19 -15 19 -8
0 -15 -9 -15 -19z"/>
<path d="M1345 4710 c-29 -29 -29 -29 -5 -23 24 6 49 29 50 46 0 14 -15 6 -45
-23z"/>
<path d="M1420 4660 c0 -5 5 -10 10 -10 6 0 10 5 10 10 0 6 -4 10 -10 10 -5 0
-10 -4 -10 -10z"/>
<path d="M1260 4633 c0 -25 0 -26 20 -8 11 10 20 22 20 27 0 4 -9 8 -20 8 -15
0 -20 -7 -20 -27z"/>
<path d="M1526 4572 c-4 -7 -2 -12 3 -12 15 0 14 -26 -1 -50 -7 -10 -8 -23 -4
-27 5 -4 11 -2 13 5 3 6 9 10 13 7 14 -9 30 29 23 54 -3 13 -11 20 -19 17 -7
-3 -14 0 -17 7 -2 8 -5 8 -11 -1z"/>
<path d="M1187 4533 c-10 -10 -8 -33 3 -33 5 0 14 9 20 20 8 15 8 20 -3 20 -8
0 -17 -3 -20 -7z"/>
<path d="M3627 4474 c-8 -8 3 -34 14 -34 11 0 12 27 0 34 -4 3 -11 3 -14 0z"/>
<path d="M3840 4450 c0 -5 7 -7 15 -4 8 4 15 8 15 10 0 2 -7 4 -15 4 -8 0 -15
-4 -15 -10z"/>
<path d="M5801 4434 c0 -11 3 -14 6 -6 3 7 2 16 -1 19 -3 4 -6 -2 -5 -13z"/>
<path d="M1151 4422 c-13 -25 -14 -52 -2 -52 10 0 26 58 18 67 -3 2 -10 -4
-16 -15z"/>
<path d="M1452 4408 c-18 -18 -14 -59 8 -93 11 -16 20 -38 20 -47 0 -12 8 -18
24 -18 14 0 28 -5 31 -10 13 -20 -71 -120 -100 -120 -21 0 -27 -16 -10 -30 16
-13 35 -5 35 15 0 19 49 51 72 47 12 -2 18 3 18 16 0 29 37 70 69 77 51 11 86
69 48 79 -38 10 -45 7 -56 -25 -11 -32 -39 -36 -33 -5 3 14 0 14 -17 -3 -12
-12 -25 -21 -30 -21 -21 0 -34 35 -35 90 -1 47 -4 60 -16 60 -9 0 -21 -5 -28
-12z"/>
<path d="M1141 4288 c-1 -20 4 -40 9 -43 6 -3 10 -19 10 -35 0 -39 9 -60 27
-60 16 0 16 0 -13 85 -31 91 -33 93 -33 53z"/>
<path d="M1230 4112 c0 -15 22 -29 57 -36 28 -7 31 -5 26 13 -3 14 -14 21 -28
21 -13 0 -30 3 -39 6 -9 3 -16 2 -16 -4z"/>
<path d="M1344 4075 c-10 -26 1 -35 13 -10 6 14 7 25 2 25 -5 0 -12 -7 -15
-15z"/>
<path d="M1264 3829 c-3 -6 -1 -16 5 -22 8 -8 11 -5 11 11 0 24 -5 28 -16 11z"/>
<path d="M1716 3699 c-32 -5 -62 -11 -65 -14 -7 -7 -19 -139 -20 -216 l-1 -56
91 -14 c84 -14 91 -14 100 2 15 29 11 39 -26 61 -41 24 -41 41 1 48 26 5 30
10 35 48 5 37 2 46 -18 62 -17 13 -23 26 -21 50 3 39 0 40 -76 29z m10 -206
c-11 -11 -19 6 -11 24 8 17 8 17 12 0 3 -10 2 -21 -1 -24z"/>
<path d="M1919 3643 c-24 -26 -26 -37 -32 -150 l-7 -123 40 0 c51 0 58 16 30
70 -18 35 -19 44 -8 51 20 13 54 11 68 -5 6 -8 24 -16 38 -18 25 -3 27 -7 30
-52 4 -59 -11 -100 -51 -143 -25 -27 -28 -35 -17 -48 7 -8 21 -15 32 -15 51 0
33 -84 -33 -152 -38 -39 -53 -63 -58 -93 -10 -61 -36 -59 -62 4 -12 28 -26 48
-32 44 -13 -8 -3 -206 23 -458 11 -104 26 -278 35 -385 35 -443 102 -809 196
-1078 55 -156 229 -477 229 -422 0 34 54 458 84 660 8 52 19 158 26 235 6 77
16 174 22 215 18 125 18 433 1 525 -15 77 -22 260 -14 376 4 56 -7 84 -49 131
-8 9 -28 43 -43 75 -16 32 -35 69 -43 83 -8 14 -25 44 -37 68 -20 40 -24 43
-53 37 -44 -8 -59 12 -45 62 17 60 13 87 -22 176 -18 45 -44 125 -56 177 -13
52 -29 113 -36 135 l-12 40 -59 3 c-53 2 -61 0 -85 -25z m222 -589 c-23 -29
-27 -21 -11 22 8 20 14 24 22 16 8 -8 5 -18 -11 -38z"/>
<path d="M1007 3343 c-30 -8 -16 -38 21 -41 26 -3 32 0 32 16 0 15 -24 37 -33
31 -1 -1 -10 -3 -20 -6z"/>
<path d="M1360 3245 c-16 -19 -25 -33 -57 -93 -23 -42 -43 -61 -43 -43 0 6 -6
11 -12 11 -13 0 -14 -43 -2 -105 4 -23 0 -37 -19 -57 -17 -18 -23 -34 -20 -48
3 -12 0 -32 -7 -44 -19 -37 -10 -71 20 -71 25 -1 25 -2 25 -80 0 -63 5 -89 23
-122 22 -43 28 -79 14 -99 -8 -13 -170 -74 -197 -74 -10 0 -26 -7 -35 -15 -9
-8 -27 -16 -41 -17 -23 -3 -24 0 -27 64 -3 61 0 73 34 135 21 37 47 75 58 84
19 15 19 20 6 72 -10 44 -10 62 -1 85 10 24 9 35 -9 73 -11 24 -31 59 -44 76
-22 30 -23 40 -19 117 3 47 3 92 -1 102 -6 16 -8 16 -26 -1 -11 -10 -20 -28
-20 -41 0 -13 -4 -26 -10 -29 -5 -3 -10 -23 -10 -44 0 -30 -5 -40 -23 -48 -19
-9 -26 -8 -35 8 -17 26 -42 24 -42 -3 0 -13 9 -47 20 -76 31 -80 23 -85 -16
-9 -39 75 -40 76 -139 52 -33 -8 -74 -15 -91 -15 -65 0 -86 -87 -34 -140 26
-26 29 -35 25 -75 -4 -41 -2 -47 20 -57 14 -6 25 -16 25 -21 0 -5 13 -7 30 -4
21 5 32 2 38 -9 5 -9 19 -14 32 -12 25 3 53 59 64 129 7 39 30 78 41 67 4 -4
-2 -33 -13 -65 -11 -32 -23 -75 -26 -95 l-7 -38 55 0 c46 0 57 -4 66 -21 9
-17 8 -24 -9 -38 -17 -15 -21 -30 -21 -78 0 -52 -15 -123 -26 -123 -15 0 -54
26 -54 36 0 6 -7 14 -15 18 -8 3 -15 1 -15 -5 0 -5 -10 -14 -22 -19 -23 -9
-23 -9 2 -10 30 0 41 -8 58 -37 16 -30 15 -68 -3 -83 -20 -17 -154 -80 -169
-80 -8 0 -26 -10 -41 -22 -15 -12 -53 -34 -84 -48 -31 -15 -62 -34 -70 -43 -7
-10 -19 -17 -26 -17 -7 0 -18 -7 -25 -15 -7 -8 -37 -29 -67 -46 -30 -17 -74
-46 -97 -64 -24 -18 -57 -36 -74 -40 -18 -4 -41 -21 -57 -41 -15 -20 -38 -39
-51 -44 -13 -5 -24 -15 -24 -22 0 -7 -9 -24 -20 -38 -19 -24 -20 -47 -20 -908
l0 -882 1133 2 1132 3 2 50 c4 68 32 213 50 253 8 18 16 66 19 106 5 86 -2
105 -86 251 -137 238 -192 368 -249 587 -83 318 -119 556 -151 998 -13 184
-39 410 -50 431 -5 9 -6 42 -3 74 7 69 -5 71 -54 7 -17 -23 -34 -39 -36 -35
-16 27 -55 176 -50 190 9 26 34 53 49 53 7 0 26 -11 42 -25 17 -14 34 -25 40
-25 16 0 21 209 6 240 -12 24 -18 26 -83 27 -68 1 -72 3 -106 38 -31 33 -38
37 -67 30 -44 -10 -118 -10 -144 -1 -14 5 -25 2 -34 -9z m-300 -498 c0 -2 -16
-18 -35 -37 -32 -31 -35 -32 -35 -12 0 15 10 26 33 36 39 17 37 17 37 13z"/>
<path d="M1236 3231 c-4 -7 -5 -15 -2 -18 9 -9 19 4 14 18 -4 11 -6 11 -12 0z"/>
<path d="M4260 3003 c-56 -6 -64 -11 -50 -28 7 -8 19 -15 26 -15 7 0 45 -15
84 -34 38 -19 70 -32 70 -30 0 3 15 -3 33 -13 17 -10 41 -19 52 -20 51 -7 85
-16 85 -24 0 -5 7 -9 16 -9 11 0 14 -5 10 -16 -4 -9 -1 -22 4 -30 6 -7 10 -18
9 -26 -2 -7 1 -23 5 -36 5 -15 3 -29 -5 -38 -10 -13 -10 -17 2 -25 12 -8 11
-12 -5 -24 -26 -20 -35 -108 -12 -130 9 -9 16 -25 16 -36 0 -10 7 -19 15 -19
8 0 15 7 15 15 0 8 5 14 12 13 6 -2 26 19 44 46 26 39 31 53 22 63 -9 11 -7
15 10 20 12 3 19 9 16 14 -3 5 -11 6 -17 2 -9 -5 -9 -3 0 8 7 8 10 31 7 53 -3
24 -1 35 6 31 6 -3 14 4 19 17 4 13 16 23 25 23 8 0 16 3 16 8 0 4 0 14 0 22
0 8 -8 15 -17 15 -23 0 -67 28 -118 74 -22 20 -43 36 -46 36 -3 0 -19 11 -35
25 -58 50 -202 81 -314 68z"/>
<path d="M160 2626 c0 -9 5 -16 10 -16 6 0 10 4 10 9 0 6 -4 13 -10 16 -5 3
-10 -1 -10 -9z"/>
<path d="M257 2569 c11 -12 26 -18 32 -14 17 10 -6 35 -32 35 l-21 0 21 -21z"/>
<path d="M2565 2540 c-11 -17 14 -214 34 -272 10 -30 30 -76 44 -104 21 -42
138 -212 208 -303 11 -14 53 -73 94 -131 71 -102 374 -423 437 -464 27 -18 28
-18 47 5 l19 23 38 -27 c22 -14 52 -42 67 -62 15 -19 34 -35 42 -35 8 0 30
-13 48 -30 19 -16 42 -30 52 -30 9 0 70 27 136 61 150 77 152 86 27 118 -175
45 -331 117 -454 210 -70 53 -264 235 -264 248 0 6 -60 63 -67 63 -12 0 -113
111 -128 141 -10 19 -25 43 -35 54 -9 11 -23 36 -30 55 -7 19 -21 46 -30 60
-10 14 -38 66 -64 115 -26 50 -56 99 -65 110 -10 11 -24 31 -31 45 -13 25 -85
124 -107 148 -8 8 -14 9 -18 2z"/>
<path d="M5455 2340 c3 -5 8 -10 11 -10 2 0 4 5 4 10 0 6 -5 10 -11 10 -5 0
-7 -4 -4 -10z"/>
<path d="M4630 1573 c0 -14 20 -39 20 -25 0 22 18 13 28 -15 10 -28 10 -27 11
10 1 35 -1 37 -29 37 -16 0 -30 -3 -30 -7z"/>
<path d="M4595 1500 c-8 -13 15 -24 27 -12 6 6 4 11 -6 15 -8 3 -18 2 -21 -3z"/>
<path d="M4421 1344 c0 -11 3 -14 6 -6 3 7 2 16 -1 19 -3 4 -6 -2 -5 -13z"/>
<path d="M4240 1333 c0 -5 8 -17 17 -28 14 -18 15 -18 9 -2 -3 10 -6 23 -6 28
0 5 -4 9 -10 9 -5 0 -10 -3 -10 -7z"/>
<path d="M4340 1323 c0 -12 -3 -14 -8 -7 -5 9 -10 8 -19 -2 -10 -10 -10 -15 0
-21 26 -16 47 -13 47 6 0 24 16 36 23 19 3 -8 6 -6 6 5 1 12 -7 17 -24 17 -17
0 -25 -6 -25 -17z"/>
<path d="M4180 1300 c20 -13 60 -13 60 0 0 6 -17 10 -37 10 -28 0 -34 -3 -23
-10z"/>
</g>
</svg>
